<svg width="133" height="132" viewBox="0 0 133 132" fill="none" xmlns="http://www.w3.org/2000/svg">
<g filter="url(#filter0_d)">
<path d="M4.62505 40.2207C4.60902 31.0962 8.11702 22.3128 14.427 15.6782C20.737 9.0437 29.3689 5.06293 38.5459 4.55528C47.723 4.04762 56.7469 7.05171 63.7604 12.9492C70.7738 18.8467 75.2431 27.1889 76.2483 36.2587H64.4907C57.0812 36.2587 49.9753 39.1807 44.736 44.3819C39.4968 49.5831 36.5534 56.6374 36.5534 63.993V75.6652C27.7716 74.6905 19.6598 70.5364 13.7694 63.9973C7.87901 57.4582 4.62336 48.9931 4.62505 40.2207Z" fill="url(#paint0_linear)"/>
<path d="M64.4923 44.1831C59.1999 44.1831 54.1242 46.2703 50.3819 49.9854C46.6395 53.7005 44.5371 58.7394 44.5371 63.9934V95.6898C44.5371 100.944 46.6395 105.983 50.3819 109.698C54.1242 113.413 59.1999 115.5 64.4923 115.5H96.4206C101.713 115.5 106.789 113.413 110.531 109.698C114.273 105.983 116.376 100.944 116.376 95.6898V63.9934C116.376 58.7394 114.273 53.7005 110.531 49.9854C106.789 46.2703 101.713 44.1831 96.4206 44.1831H64.4923Z" fill="url(#paint1_linear)"/>
</g>
<defs>
<filter id="filter0_d" x="0.625" y="0.5" width="131.751" height="131" filterUnits="userSpaceOnUse" color-interpolation-filters="sRGB">
<feFlood flood-opacity="0" result="BackgroundImageFix"/>
<feColorMatrix in="SourceAlpha" type="matrix" values="0 0 0 0 0 0 0 0 0 0 0 0 0 0 0 0 0 0 127 0"/>
<feOffset dx="6" dy="6"/>
<feGaussianBlur stdDeviation="5"/>
<feColorMatrix type="matrix" values="0 0 0 0 0 0 0 0 0 0 0 0 0 0 0 0 0 0 0.25 0"/>
<feBlend mode="normal" in2="BackgroundImageFix" result="effect1_dropShadow"/>
<feBlend mode="normal" in="SourceGraphic" in2="effect1_dropShadow" result="shape"/>
</filter>
<linearGradient id="paint0_linear" x1="40.4366" y1="4.5" x2="40.4366" y2="75.6652" gradientUnits="userSpaceOnUse">
<stop stop-color="#FC9C43"/>
<stop offset="1" stop-color="#FF7A00" stop-opacity="0.4"/>
</linearGradient>
<linearGradient id="paint1_linear" x1="80.4565" y1="44.1831" x2="80.4565" y2="115.5" gradientUnits="userSpaceOnUse">
<stop stop-color="#FC9C43"/>
<stop offset="1" stop-color="#FF7A00" stop-opacity="0.4"/>
</linearGradient>
</defs>
</svg>
